<?xml version="1.0" encoding="UTF-8" standalone="no"?>
<!-- Created with Inkscape (http://www.inkscape.org/) -->

<svg
   width="255mm"
   height="255mm"
   viewBox="0 0 255 255"
   version="1.1"
   id="svg1"
   inkscape:version="1.3.2 (091e20ef0f, 2023-11-25, custom)"
   sodipodi:docname="as.svg"
   xml:space="preserve"
   xmlns:inkscape="http://www.inkscape.org/namespaces/inkscape"
   xmlns:sodipodi="http://sodipodi.sourceforge.net/DTD/sodipodi-0.dtd"
   xmlns="http://www.w3.org/2000/svg"
   xmlns:svg="http://www.w3.org/2000/svg"
   xmlns:rdf="http://www.w3.org/1999/02/22-rdf-syntax-ns#"
   xmlns:cc="http://creativecommons.org/ns#"
   xmlns:dc="http://purl.org/dc/elements/1.1/"><defs
     id="defs1" /><sodipodi:namedview
     id="base"
     pagecolor="#ffffff"
     bordercolor="#000000"
     borderopacity="0.3"
     inkscape:pageopacity="0.0"
     inkscape:pageshadow="2"
     inkscape:zoom="0.97689223"
     inkscape:cx="497.49602"
     inkscape:cy="428.91118"
     inkscape:document-units="mm"
     inkscape:showpageshadow="0"
     inkscape:pagecheckerboard="1"
     inkscape:deskcolor="#d1d1d1"
     inkscape:window-width="1875"
     inkscape:window-height="1060"
     inkscape:window-x="45"
     inkscape:window-y="0"
     inkscape:window-maximized="1"
     inkscape:current-layer="svg1"
     showgrid="false" /><metadata
     id="metadata1"><rdf:RDF><cc:Work
         rdf:about=""><dc:format>image/svg+xml</dc:format><dc:type
           rdf:resource="http://purl.org/dc/dcmitype/StillImage" /></cc:Work></rdf:RDF></metadata><path
     style="fill:#000000;stroke-width:0.264583"
     d="M 107.60999,47.473586 134.75771,47.414563 136.8892,54.714274 141.14319,59.990428 150.44518,62.926253 159.67342,59.117515 178.79649,78.161083 175.66247,86.189816 175.38822,93.942624 179.17354,101.31594 189.54649,106.6468 190.38607,134.20372 182.67819,136.34756 176.2553,144.42374 167.60008,153.9464 153.79653,159.8593 137.7385,159.47566 123.89571,152.34608 116.47684,144.74897 111.54472,135.33787 109.85569,126.26143 108.81732,116.29799 103.76502,108.04968 96.415711,104.77004 89.599962,105.21814 81.673292,111.5923 79.2609,120.29724 80.295625,129.50722 83.666387,141.83108 92.172879,151.80278 103.67594,160.37154 121.1441,164.85597 133.34164,162.79128 146.87018,165.75181 162.42524,162.72676 173.74968,155.31007 177.62402,158.69904 178.38482,164.59357 159.91104,181.90155 154.34643,178.58559 146.19368,177.89009 139.24941,181.51245 136.53105,187.4345 134.64194,193.54899 107.9704,193.65152 105.01139,184.34529 99.330929,179.47412 91.247446,177.80211 82.203215,182.0637 62.228393,161.88891 66.214426,152.89495 65.838829,145.71391 62.349705,139.11956 54.019317,135.27805 51.735047,133.35316 52.19669,105.46812 61.536262,100.84275 71.477369,89.3652 83.070548,82.323997 94.7936,80.139515 106.97276,81.928546 117.55506,87.960233 125.05909,96.151307 130.254,105.07124 132.79501,117.7392 134.3362,126.39614 136.99895,131.99088 146.5994,136.25362 154.02534,134.88101 160.20355,129.77287 162.54297,120.87051 161.72973,111.49919 158.3596,101.30709 153.04818,91.371006 143.94742,83.226046 129.95823,76.126167 114.67466,76.509831 109.01642,78.190285 96.492032,75.059618 80.309603,77.685523 68.52264,85.510149 65.272935,83.743463 62.611819,77.855552 80.525727,59.508675 84.523711,59.946264 89.901338,62.647914 95.316952,62.65742 103.73314,57.333866 Z"
     id="path1" /></svg>
